<svg width="48" height="48" viewBox="0 0 48 48" fill="none" xmlns="http://www.w3.org/2000/svg">
<circle cx="24" cy="24" r="23" fill="black" stroke="#DAFB53" stroke-width="2"/>
<circle cx="22.5" cy="25.5" r="1.5" fill="#1CD8D2"/>
<circle cx="26.5" cy="28.5" r="1.5" fill="#1CD8D2"/>
<circle cx="21.5" cy="29.5" r="1.5" fill="#1CD8D2"/>
<circle cx="25.5" cy="32.5" r="1.5" fill="#1CD8D2"/>
<circle cx="30.5" cy="30.5" r="1.5" fill="#1CD8D2"/>
<circle cx="30.5" cy="26.5" r="1.5" fill="#1CD8D2"/>
<circle cx="27.5" cy="23.5" r="1.5" fill="#1CD8D2"/>
<path fill-rule="evenodd" clip-rule="evenodd" d="M18.6999 20.4991L16 6.99976L14.0388 7.39199L17.0214 22.3049C15.7504 24.0414 15 26.183 15 28.4999C15 34.2989 19.701 38.9999 25.5 38.9999C31.299 38.9999 36 34.2989 36 28.4999C36 22.7009 31.299 17.9999 25.5 17.9999C22.9061 17.9999 20.5319 18.9405 18.6999 20.4991ZM17.6212 25.3041L18.0388 27.392L20 26.9998L19.1663 22.8311C20.7226 21.0934 22.9836 19.9999 25.5 19.9999C30.1944 19.9999 34 23.8055 34 28.4999C34 33.1943 30.1944 36.9999 25.5 36.9999C20.8056 36.9999 17 33.1943 17 28.4999C17 27.3695 17.2207 26.2907 17.6212 25.3041Z" fill="#DAFB53"/>
</svg>
